<?xml version="1.0" encoding="iso-8859-1"?>
<!-- Generator: Adobe Illustrator 19.0.0, SVG Export Plug-In . SVG Version: 6.00 Build 0)  -->
<svg version="1.1" id="Layer_1" xmlns="http://www.w3.org/2000/svg" xmlns:xlink="http://www.w3.org/1999/xlink" x="0px" y="0px"
	 viewBox="0 0 512 512" style="enable-background:new 0 0 512 512;" xml:space="preserve">
<path style="fill:#EEBF00;" d="M299.245,308.861l35.485-24.444l10.139-117.917c0-21.84-17.705-39.545-39.545-39.545h-11.263
	c-10.596,0-19.186-8.589-19.186-19.186V81.73h-37.752v26.038c0,10.596-8.589,19.186-19.186,19.186h-11.263
	c-21.84,0-39.545,17.705-39.545,39.545l10.139,117.917l30.692,24.025L299.245,308.861z"/>
<path style="opacity:0.14;fill:#663C1D;enable-background:new    ;" d="M305.324,126.954h-11.263
	c-10.596,0-19.186-8.59-19.186-19.186V81.73h-16.334v26.038c0,10.596,8.59,19.186,19.186,19.186h11.263
	c21.841,0,39.545,17.705,39.545,39.545l-10.139,117.917l-35.378,24.37l16.227,0.074l35.485-24.444l10.139-117.917
	C344.869,144.659,327.165,126.954,305.324,126.954z"/>
<polygon style="fill:#DDB200;" points="302.794,185.23 302.794,271.542 285.778,450.439 221.466,450.439 204.449,271.542 
	204.449,185.23 "/>
<polygon style="opacity:0.14;fill:#663C1D;enable-background:new    ;" points="287.409,185.23 287.409,256.338 270.393,435.236 
	219.839,435.236 221.284,450.439 285.597,450.439 302.613,271.542 302.613,185.23 "/>
<rect x="184.097" y="477.417" style="fill:#3E3B43;" width="139.051" height="26.979"/>
<rect x="204.445" y="450.438" style="fill:#494949;" width="98.345" height="26.979"/>
<rect x="237.122" y="75.462" style="opacity:0.27;fill:#663C1D;enable-background:new    ;" width="37.736" height="29.288"/>
<path style="fill:#EEBF00;" d="M279.845,86.402l-9.893,7.057c-8.348,5.955-19.555,5.955-27.903,0l-9.893-7.057
	c-5.335-3.806-8.501-9.954-8.501-16.508V28.473c0-11.526,9.343-20.868,20.868-20.868h22.957c11.526,0,20.868,9.343,20.868,20.868
	v41.421C288.346,76.447,285.18,82.596,279.845,86.402z"/>
<path style="opacity:0.1;fill:#663C1D;enable-background:new    ;" d="M275.97,9.422c1.159,2.596,1.818,5.465,1.818,8.492v41.421
	c0,6.553-3.166,12.702-8.501,16.508l-9.893,7.057c-8.348,5.955-19.555,5.955-27.904,0l-5.776-4.12
	c1.461,2.996,3.651,5.631,6.442,7.622l9.893,7.057c8.348,5.955,19.555,5.955,27.903,0l9.893-7.057
	c5.335-3.805,8.501-9.954,8.501-16.508V28.473C288.346,19.975,283.259,12.676,275.97,9.422z"/>
<polygon style="fill:#CCA400;" points="304.821,164.162 302.794,193.909 266.993,193.909 253.621,188.749 238.525,193.909 
	204.449,193.909 202.421,164.162 "/>
<path d="M305.324,119.351h-11.262c-6.387,0-11.583-5.196-11.583-11.583V93.863l1.781-1.27c7.32-5.22,11.69-13.707,11.69-22.698
	V28.473C295.95,12.774,283.179,0,267.478,0h-22.957c-15.7,0-28.473,12.774-28.473,28.473v41.42c0,8.991,4.371,17.476,11.69,22.698
	l1.781,1.27v13.904c0,6.387-5.196,11.583-11.582,11.583h-11.261c-25.998,0-47.149,21.15-47.149,47.149
	c0,0.218,0.009,0.435,0.027,0.652l10.139,117.917c0.173,2.007,1.136,3.866,2.677,5.164l28.505,24.016l12.23,128.587h-8.654
	c-4.2,0-7.604,3.404-7.604,7.604v19.375h-12.75c-4.2,0-7.604,3.404-7.604,7.604v26.979c0,4.2,3.404,7.604,7.604,7.604h139.052
	c4.2,0,7.604-3.404,7.604-7.604v-26.978c0-4.2-3.404-7.604-7.604-7.604h-12.75v-19.375c0-4.2-3.404-7.604-7.604-7.604h-8.654
	l12.196-128.224l32.886-24.058c1.772-1.296,2.898-3.297,3.086-5.485l10.139-117.917c0.019-0.217,0.027-0.434,0.027-0.652
	C352.473,140.501,331.323,119.351,305.324,119.351z M231.257,28.473c0-7.315,5.95-13.265,13.265-13.265h22.957
	c7.314,0,13.264,5.95,13.264,13.265v41.42c0,4.087-1.986,7.945-5.314,10.318l-9.893,7.057c-5.706,4.071-13.369,4.069-19.073,0
	l-9.893-7.057c-3.326-2.374-5.314-6.231-5.314-10.318L231.257,28.473L231.257,28.473z M315.544,496.792H191.699v-11.77h12.75h98.345
	h12.75L315.544,496.792L315.544,496.792z M295.19,469.814h-83.137v-11.771h9.382c0.007,0,0.014,0.001,0.021,0.001
	s0.013-0.001,0.02-0.001h64.29c0.007,0,0.013,0.001,0.02,0.001c0.007,0,0.014-0.001,0.021-0.001h9.382L295.19,469.814
	L295.19,469.814z M261.225,442.834V293.022c0-4.2-3.404-7.604-7.604-7.604c-4.2,0-7.604,3.404-7.604,7.604v149.812h-17.638
	l-16.326-171.654v-69.669h26.471c0.836,0,1.668-0.138,2.46-0.409l12.481-4.265l10.792,4.164c0.873,0.337,1.801,0.51,2.737,0.51
	h28.198v69.669l-16.327,171.654H261.225z M327.451,280.319l-19.189,14.038l2.102-22.097c0.022-0.238,0.034-0.48,0.034-0.72v-77.376
	l2.009-29.485c0.286-4.189-2.879-7.818-7.07-8.103c-4.181-0.289-7.818,2.879-8.103,7.07l-1.544,22.66H268.41l-12.051-4.651
	c-1.668-0.643-3.506-0.68-5.197-0.101l-13.901,4.752h-25.708l-1.544-22.66c-0.285-4.19-3.95-7.363-8.103-7.07
	c-4.19,0.285-7.356,3.914-7.07,8.103l2.009,29.485v77.377c0,0.24,0.012,0.482,0.034,0.72l1.937,20.367l-14.242-12l-9.84-114.44
	c0.167-17.469,14.43-31.63,31.94-31.63h11.262c14.772,0,26.79-12.018,26.79-26.791v-4.332c3.627,1.384,7.447,2.093,11.272,2.093
	s7.645-0.709,11.271-2.092v4.331c0,14.772,12.018,26.791,26.791,26.791h11.262c17.509,0,31.772,14.162,31.94,31.631L327.451,280.319
	z"/>
<g>
</g>
<g>
</g>
<g>
</g>
<g>
</g>
<g>
</g>
<g>
</g>
<g>
</g>
<g>
</g>
<g>
</g>
<g>
</g>
<g>
</g>
<g>
</g>
<g>
</g>
<g>
</g>
<g>
</g>
</svg>
